<svg xmlns="http://www.w3.org/2000/svg" xmlns:xlink="http://www.w3.org/1999/xlink" width="285" height="15" viewBox="0 0 285 15">
  <defs>
    <clipPath id="clip-path">
      <rect id="Rectangle_1627" data-name="Rectangle 1627" width="285" height="15" transform="translate(0 0)" fill="#2984b7"/>
    </clipPath>
  </defs>
  <g id="Drawn_underline" data-name="Drawn underline" transform="translate(0 0)">
    <g id="Group_2864" data-name="Group 2864" transform="translate(0 0)" clip-path="url(#clip-path)">
      <path id="Path_3672" data-name="Path 3672" d="M283.681,1.763h0M283.664.053h0ZM161.4,2.616q-34.913.277-69.834.557-38.8.315-77.6.622a.866.866,0,1,1-.013-1.732q38.8-.309,77.6-.622Q162.457.876,233.358.318l9.586-.077Q259.889.106,276.839.005c1.089,0,3.263-.009,4.9,0,.81,0,1.5.009,1.856.021.086,0,.167,0,.227.009h0c.017,0,.09.009.171.026a1.461,1.461,0,0,1,.163.056.954.954,0,0,1,.193.12.873.873,0,0,1,.292.454.875.875,0,0,1-.39.956.843.843,0,0,1-.219.094.957.957,0,0,1-.2.034.978.978,0,0,1-.116.009c-.081.009-.193.013-.33.017-4.069.146-8.15.2-12.214.244q-2.392.032-4.78.069c-31.884.51-63.75,1.26-95.625,2.015q-3.756.084-7.507.176h65.559V6.037H74.853c-12.433,0-24.741.021-34.327.06-2.469.013-5.873-.009-9.663-.034l-4.27-.026c-1.479,0-2.294,0-2.517,0-.021,0-.043,0-.06,0h-.047s-.026,0-.043,0c-3.85-.017-7.751-.021-11.237.017-2.971.03-5.6.09-7.61.193C23,9.407,42.617,9.922,61.267,10.415c4.939.129,9.809.257,14.559.429,42.683,1.573,85.349,1.792,128.041,2.006,19.391.1,38.79.2,58.2.424a.866.866,0,1,1-.021,1.732c-19.387-.227-38.773-.326-58.16-.424-42.7-.214-85.413-.433-128.126-2.006-4.707-.171-9.548-.3-14.469-.429-19.219-.5-39.648-1.037-58.147-4.506a18.5,18.5,0,0,1-1.822-.416,3.906,3.906,0,0,1-.592-.219,1.409,1.409,0,0,1-.566-.459A.956.956,0,0,1,.007,5.9a.987.987,0,0,1,.27-.566,1.509,1.509,0,0,1,.579-.347,6.77,6.77,0,0,1,1.26-.253c2.006-.257,5.929-.373,10.555-.42,3.61-.039,7.7-.034,11.708-.017h.274c.54,0,1.419-.009,2.589-.013,1.338-.009,3.052-.013,5.089-.021,5.093-.021,12.167-.047,20.2-.086,22.482-.107,52.441-.3,67.416-.613q20.726-.45,41.453-.943M1.456,5.429s0,0,.013.009c-.009-.009-.013-.009-.013-.009M1.4,6.629a.013.013,0,0,1-.009,0Z" transform="translate(0 0)" fill="#2984b7" fill-rule="evenodd"/>
    </g>
  </g>
</svg>
