<svg xmlns="http://www.w3.org/2000/svg" width="186.199" height="85.94" viewBox="0 0 186.199 85.94">
  <g id="Drawn_circle" data-name="Drawn circle" transform="matrix(0.995, -0.105, 0.105, 0.995, 0, 18.829)">
    <path id="Path_1590" data-name="Path 1590" d="M11.519,48.812c7.564,3.065,7.825,4.636,20.243,8.15,31.1,8.8,71.172,7.987,102.043,1.455,18.164-3.843,38.434-11.615,40.09-24.293a8.5,8.5,0,0,0-.966-5.325c-.547-1.041-.31-1.013-1.687-1.464.363,2.15,1.148,3.08.77,5.61-2.114,14.15-25.717,21.632-46.42,25.262A224.749,224.749,0,0,1,43.585,57.9C29.543,55.206,17.717,50.626,9.857,45.19c-3.865-2.673-6.428-5.164-5.777-10C6.421,17.827,50.74,7.486,75.222,3.911,91,1.607,99.5,2.073,115.788,3.67,131.206,5.183,145.7,8.4,156.737,13.3c10.194,4.531,18.082,10.488,19.437,17.55,1.764,9.188-5.733,16.782-15.358,21.948C145.938,60.788,117.6,65.2,91.226,65.28c-19.943.06-47.318-3.138-65.265-9.314a55.582,55.582,0,0,1-14.442-7.154M6.079,24.641c4.9-3.5,5.286-4.337,12.056-7.557,10.63-5.056,24.8-9.122,37.764-11.846,2.686-.564,5.819-.946,8.326-1.687C59.962,3.5,51,5.2,47.049,5.953a163.008,163.008,0,0,0-16,3.976C24.556,11.838,9.34,18.1,6.079,24.641M112.5,1.541c5.573-.544,13.051.353,19.42.971,11.47,1.112,12,2.4,18.582,4.237.231-.928-.109-.874-1.736-1.566a50.593,50.593,0,0,0-12-3.165A165.355,165.355,0,0,0,118.612.211c-12.067-.586-21.093.224-32.2.283C47.182.7-5.632,11.141.487,39.113c2.535,11.586,20.4,19.15,43.734,23.735,32.836,6.452,66.319,6.158,96.5-.847C159.6,57.619,177.344,49.4,179.89,35.91c2.415-12.8-13.6-22.39-31.546-27.9-12.789-3.926-22.1-4.466-35.84-6.471" transform="translate(0 0)" fill="#5e9e2d" fill-rule="evenodd"/>
  </g>
</svg>
