<svg xmlns="http://www.w3.org/2000/svg" width="20" height="14.087" viewBox="0 0 20 14.087">
  <g id="Email_icon" data-name="Email icon" transform="translate(0 0)">
    <path id="Path_1760" data-name="Path 1760" d="M18.3,0H1.7A1.65,1.65,0,0,0,0,1.593v10.9a1.65,1.65,0,0,0,1.7,1.593H18.3A1.65,1.65,0,0,0,20,12.494V1.593A1.65,1.65,0,0,0,18.3,0M10.577,7.553a.831.831,0,0,1-1.154,0C7.924,6.287,3.9,2.84,1.6.866A.38.38,0,0,1,1.7.851H18.3A.378.378,0,0,1,18.4.865c-1.484,1.274-6.167,5.292-7.819,6.688m-2.461.037.7.594a1.777,1.777,0,0,0,2.368,0l.7-.594c2.119,1.7,5.468,4.68,6.528,5.628a.444.444,0,0,1-.111.018H1.7a.449.449,0,0,1-.111-.018C2.648,12.27,6,9.291,8.116,7.591m-.677-.576C5.355,8.7,2.232,11.467.932,12.629a.47.47,0,0,1-.025-.136V1.593a.5.5,0,0,1,.027-.15c1.041.894,4.351,3.734,6.5,5.571m5.122,0c2.235-1.906,5.711-4.89,6.5-5.571a.513.513,0,0,1,.027.15v10.9a.467.467,0,0,1-.025.136c-1.045-.934-4.364-3.885-6.507-5.615" transform="translate(0 0)" fill="#5e9e2d"/>
  </g>
</svg>
