<svg xmlns="http://www.w3.org/2000/svg" xmlns:xlink="http://www.w3.org/1999/xlink" width="25" height="25" viewBox="0 0 25 25">
  <defs>
    <clipPath id="clip-path">
      <rect id="Rectangle_1610" data-name="Rectangle 1610" width="13.939" height="10.467" fill="#2984b7"/>
    </clipPath>
  </defs>
  <g id="Group_2932" data-name="Group 2932" transform="translate(-1054 -1496)">
    <circle id="Ellipse_26" data-name="Ellipse 26" cx="12.5" cy="12.5" r="12.5" transform="translate(1054 1496)" fill="#fff"/>
    <g id="Group_2838" data-name="Group 2838" transform="translate(1060 1503)">
      <g id="Group_2837" data-name="Group 2837" transform="translate(0 0)" clip-path="url(#clip-path)">
        <path id="Path_3660" data-name="Path 3660" d="M12.755,0H1.184A1.185,1.185,0,0,0,0,1.184v8.1a1.185,1.185,0,0,0,1.184,1.184H12.755a1.185,1.185,0,0,0,1.184-1.184v-8.1A1.185,1.185,0,0,0,12.755,0M7.371,5.613a.554.554,0,0,1-.8,0C5.523,4.671,2.721,2.11,1.118.643A.25.25,0,0,1,1.184.632H12.755a.249.249,0,0,1,.066.011c-1.035.947-4.3,3.932-5.45,4.97M5.656,5.64l.488.441a1.182,1.182,0,0,0,1.65,0l.488-.442c1.477,1.265,3.811,3.478,4.55,4.182a.292.292,0,0,1-.078.013H1.184a.3.3,0,0,1-.078-.013c.739-.7,3.075-2.919,4.55-4.182m-.472-.428C3.732,6.462,1.556,8.521.649,9.384a.37.37,0,0,1-.017-.1v-8.1a.4.4,0,0,1,.019-.111c.726.664,3.033,2.775,4.533,4.14m3.569,0c1.557-1.416,3.98-3.633,4.534-4.14a.4.4,0,0,1,.019.111v8.1a.367.367,0,0,1-.018.1C12.561,8.69,10.248,6.5,8.754,5.212" transform="translate(0 0)" fill="#2984b7"/>
      </g>
    </g>
  </g>
</svg>
