<svg xmlns="http://www.w3.org/2000/svg" width="25.011" height="25.01" viewBox="0 0 25.011 25.01">
  <path id="Path_3194" data-name="Path 3194" d="M306.879,0a12.505,12.505,0,1,0,12.506,12.5A12.5,12.5,0,0,0,306.879,0m-2.83,18.223H301.3V8.7h2.747ZM302.67,7.677A1.682,1.682,0,0,1,300.993,6a1.682,1.682,0,1,1,3.362,0,1.684,1.684,0,0,1-1.686,1.677m10.853,10.545h-2.7v-5.8a1.068,1.068,0,0,0-.484-.792c-1.061-.624-2.217.485-2.217.485v6.111h-2.748V8.7h2.748V9.14a4.155,4.155,0,0,1,3.549.093,3.8,3.8,0,0,1,1.854,3.186Z" transform="translate(-294.374)" fill="#fff"/>
</svg>
