<svg xmlns="http://www.w3.org/2000/svg" xmlns:xlink="http://www.w3.org/1999/xlink" width="63.1" height="86.633" viewBox="0 0 63.1 86.633">
  <defs>
    <clipPath id="clip-path">
      <rect id="Rectangle_1626" data-name="Rectangle 1626" width="60.185" height="84.584" transform="translate(0 0)" fill="#2984b7"/>
    </clipPath>
  </defs>
  <g id="Group_2860" data-name="Group 2860" transform="matrix(-0.999, -0.035, 0.035, -0.999, 60.148, 86.633)">
    <g id="Group_2859" data-name="Group 2859" clip-path="url(#clip-path)">
      <path id="Path_3671" data-name="Path 3671" d="M59.3,41.642C55.33,31.629,48.761,21.155,40.354,13.6c-1.872-9-16.447-19.224-22.209-9.931C11.05,15.111,3.455,27.116.377,40.343h0c-2.631,5.995,9.208,15.921,12.78,10.771,2.619-3.776,5.109-7.47,7.676-11.03q1.611,19.254,2.847,38.581c.213,3.314,7.43,9.115,8.029,3.707,1.954-17.659,4.195-35.142,6.78-52.649A79.078,79.078,0,0,1,44.274,42.2c3.119,8.691,19.9,11.716,15.03-.562" fill="#2984b7"/>
    </g>
  </g>
</svg>
