<svg xmlns="http://www.w3.org/2000/svg" xmlns:xlink="http://www.w3.org/1999/xlink" width="73.085" height="48.024" viewBox="0 0 73.085 48.024">
  <defs>
    <clipPath id="clip-path">
      <rect id="Rectangle_491" data-name="Rectangle 491" width="68.337" height="38.892" transform="translate(0 0)" fill="#5e9e2d"/>
    </clipPath>
  </defs>
  <g id="Drawn_cloud" data-name="Drawn cloud" transform="translate(5.413 0) rotate(8)">
    <g id="Group_576" data-name="Group 576" transform="translate(0 0)" clip-path="url(#clip-path)">
      <path id="Path_1938" data-name="Path 1938" d="M12.92,36.129a14.065,14.065,0,0,1-8.562-5.455,13.033,13.033,0,0,1-2.211-4.569,13.11,13.11,0,0,1-.165-4.831A14.275,14.275,0,0,1,13.027,9.635a9.155,9.155,0,0,1,4.365.2,9.109,9.109,0,0,1,4.048,2.655.476.476,0,0,0,.8-.333A11.483,11.483,0,0,1,25.3,5.494,14.41,14.41,0,0,1,31.488,1.7a15.841,15.841,0,0,1,7.253-.579A11.925,11.925,0,0,1,45.05,4.083,11.228,11.228,0,0,1,48.357,10.9c.048.381.08.764.1,1.147a.476.476,0,0,0,.709.406,10.525,10.525,0,0,1,6.766-1.881,11,11,0,0,1,5.921,2.55A15.471,15.471,0,0,1,67.38,25.59,12.252,12.252,0,0,1,65.158,32.2a10.307,10.307,0,0,1-4.208,3.1A24.8,24.8,0,0,1,54.7,36.963a55.618,55.618,0,0,1-7.552.554,145.43,145.43,0,0,1-15.9-.834c-2.286-.218-4.57-.461-6.856-.686-2.647-.26-5.3-.522-7.922-.949-3.886-.633-8.117-1.587-11.1-4.332a12.087,12.087,0,0,1-3.067-4.6A21.721,21.721,0,0,1,.942,18.976a7.273,7.273,0,0,1,.708-2.957,9.514,9.514,0,0,1,1.6-2.469,12.371,12.371,0,0,1,4.914-3.286c3.323-1.238,7.808-1.471,10.6,1.1a6.327,6.327,0,0,1,1.465,2.051.475.475,0,0,0,.86-.112A12.443,12.443,0,0,1,24.41,6.921a14.681,14.681,0,0,1,5.9-3.621c4.246-1.4,9.4-1.1,12.944,1.855A11.458,11.458,0,0,1,47.1,12.313a.473.473,0,0,0,.787.208,7.672,7.672,0,0,1,4.224-2.774,10.545,10.545,0,0,1,5.011.1,15.72,15.72,0,0,1,4.889,2.161,12.014,12.014,0,0,1,3.673,3.575,13.564,13.564,0,0,1,1.165,10.464,11.915,11.915,0,0,1-4.71,7.016A22.6,22.6,0,0,1,55.255,36a54.153,54.153,0,0,1-8.847,1.515c-3.229.312-6.475.433-9.718.439-3.146.006-6.293-.1-9.433-.291q-4.027-.244-8.04-.677c-1.872-.2-3.618-.415-5.451-.709q-.423-.068-.845-.144c-.593-.108-.847.8-.25.908,1.645.3,3.307.509,4.966.707q3.906.465,7.833.739c3.167.225,6.34.366,9.515.4,3.342.036,6.689-.042,10.022-.308a61.7,61.7,0,0,0,9.37-1.387A26.418,26.418,0,0,0,61.9,34.33a13.1,13.1,0,0,0,2.688-2.091,12.727,12.727,0,0,0,2.671-4.393,15.459,15.459,0,0,0,.1-11c-1.4-3.462-4.526-5.862-7.917-7.231-3.243-1.309-7.231-1.644-10.257.4a8.657,8.657,0,0,0-1.97,1.843l.787.207a12.421,12.421,0,0,0-3.437-6.987A12.421,12.421,0,0,0,38.28,1.847a16.232,16.232,0,0,0-7.344.284,16.047,16.047,0,0,0-6.56,3.518A13.38,13.38,0,0,0,20.4,12.087c-.086.32-.159.643-.221.969l.861-.112C19.326,9.174,14.9,8.063,11.11,8.566c-4.126.547-8.335,2.9-10.175,6.767a9.994,9.994,0,0,0-.909,3.2,9.813,9.813,0,0,0,.1,2.031c.067.665.153,1.328.264,1.987a17.238,17.238,0,0,0,2.22,6.292c2.19,3.512,5.912,5.338,9.808,6.335,4.925,1.26,10.069,1.562,15.111,2.075,5.35.545,10.71,1.059,16.089,1.185,5.091.119,10.4.014,15.324-1.427a15.412,15.412,0,0,0,5.481-2.7,10.849,10.849,0,0,0,3.375-5.5A16.011,16.011,0,0,0,64.677,14.66C61.71,10.943,56.935,8.654,52.189,10a12.486,12.486,0,0,0-3.5,1.645l.708.407a12.9,12.9,0,0,0-3-7.921,12.3,12.3,0,0,0-6.5-3.736,16.581,16.581,0,0,0-7.778.146,15.851,15.851,0,0,0-6.872,3.671,12.475,12.475,0,0,0-3.8,6.869c-.064.358-.113.718-.15,1.08l.8-.333a9.8,9.8,0,0,0-8.151-3.264A14.09,14.09,0,0,0,5.9,12.311a14.977,14.977,0,0,0-4.675,7.827,22.6,22.6,0,0,0-.283,2.287,10.89,10.89,0,0,0,.051,2.641A13.059,13.059,0,0,0,2.85,30.125a15.083,15.083,0,0,0,9.82,6.912c.593.111.846-.8.25-.908" transform="translate(0 0)" fill="#5e9e2d"/>
    </g>
  </g>
</svg>
