<svg xmlns="http://www.w3.org/2000/svg" width="16.024" height="16.047" viewBox="0 0 16.024 16.047">
  <g id="Phone_icon" data-name="Phone icon" transform="translate(0 0)">
    <path id="Path_1757" data-name="Path 1757" d="M12.671,15.146a1.578,1.578,0,0,0-1.145-.525,1.632,1.632,0,0,0-1.158.522L9.3,16.21c-.088-.047-.176-.091-.261-.135-.122-.061-.237-.118-.335-.18a11.625,11.625,0,0,1-2.787-2.54A6.852,6.852,0,0,1,5,11.912c.278-.254.535-.518.786-.772.095-.095.19-.193.284-.288a1.554,1.554,0,0,0,0-2.344l-.925-.924c-.105-.105-.213-.213-.315-.322-.2-.21-.417-.427-.637-.63a1.6,1.6,0,0,0-1.135-.5,1.659,1.659,0,0,0-1.151.5L1.9,6.639.749,7.8A2.479,2.479,0,0,0,.014,9.375a5.938,5.938,0,0,0,.434,2.513A14.582,14.582,0,0,0,3.038,16.21a15.936,15.936,0,0,0,5.307,4.156,8.264,8.264,0,0,0,2.98.881c.071,0,.146.007.214.007a2.552,2.552,0,0,0,1.954-.84c0-.007.01-.01.014-.017a7.7,7.7,0,0,1,.593-.613c.146-.139.295-.284.44-.437a1.689,1.689,0,0,0,.511-1.172,1.627,1.627,0,0,0-.521-1.162Zm1.212,3.566s0,0,0,0c-.132.142-.268.271-.413.413a8.944,8.944,0,0,0-.654.677,1.632,1.632,0,0,1-1.273.539c-.051,0-.105,0-.156,0a7.347,7.347,0,0,1-2.642-.792,15.048,15.048,0,0,1-5-3.915A13.742,13.742,0,0,1,1.308,11.57a4.834,4.834,0,0,1-.38-2.12A1.555,1.555,0,0,1,1.4,8.444L2.551,7.289a.77.77,0,0,1,.515-.24.725.725,0,0,1,.495.237l.01.01c.207.193.4.393.61.606.105.109.214.217.322.329l.925.925a.646.646,0,0,1,0,1.05c-.1.1-.193.2-.291.291-.284.291-.555.562-.85.826-.007.007-.013.01-.017.017a.691.691,0,0,0-.176.769l.01.031A7.429,7.429,0,0,0,5.2,13.924l0,0a12.429,12.429,0,0,0,3.008,2.737,4.629,4.629,0,0,0,.417.227c.122.061.237.118.335.179.013.007.027.017.041.024a.733.733,0,0,0,.335.085.723.723,0,0,0,.515-.234l1.158-1.158a.766.766,0,0,1,.512-.254.69.69,0,0,1,.488.247l.007.007,1.866,1.866a.67.67,0,0,1,0,1.06" transform="translate(0 -5.206)" fill="#5e9e2d"/>
    <path id="Path_1758" data-name="Path 1758" d="M55.121,20.138a4.358,4.358,0,0,1,3.549,3.549.455.455,0,0,0,.451.379.615.615,0,0,0,.078-.007.458.458,0,0,0,.376-.528,5.27,5.27,0,0,0-4.295-4.295.46.46,0,0,0-.528.373.452.452,0,0,0,.369.528" transform="translate(-46.46 -16.321)" fill="#5e9e2d"/>
    <path id="Path_1759" data-name="Path 1759" d="M63.205,7.08A8.678,8.678,0,0,0,56.134.008a.457.457,0,1,0-.149.9,7.751,7.751,0,0,1,6.32,6.32.454.454,0,0,0,.451.379.613.613,0,0,0,.078-.007.449.449,0,0,0,.373-.522" transform="translate(-47.188 -0.001)" fill="#5e9e2d"/>
  </g>
</svg>
