<svg id="Drawn_circle" data-name="Drawn circle" xmlns="http://www.w3.org/2000/svg" width="198.167" height="125.088" viewBox="0 0 198.167 125.088">
  <g id="Drawn_circle-2" data-name="Drawn circle" transform="translate(0 25.891) rotate(-8)">
    <path id="Word_circle" data-name="Word circle" d="M177.924,57.46c-4.109,15.416-23.292,25.328-35.72,30.084C113.943,98.363,60.69,99.22,33.233,87.424,20.8,82.085.19,69.436,8.042,49.183c3.554-9.168,8.12-13.811,14.391-18.947,33.081-27.1,89.841-26,125.816-9.26C155,24.118,163.478,29.517,167.581,34.3c3.534,4.12,13,13.171,10.342,23.159M44.885,12.719c1.918-.271.891-.18,2.429-1.407a27.885,27.885,0,0,1,7.579-3.833c27.413-9.891,65.052-5.055,90.129,6.266,13.981,6.311,28.495,15.616,35.165,28,7.62,14.146,1.716,24.714-8.674,32.956-2.1,1.664-7.112,5.268-9.686,6.187,4.224-4.73,23.1-16.893,17.97-32.958-7.506-23.511-41.947-34.91-62.774-38.6A137.1,137.1,0,0,0,94.5,7.361c-3.7-.068-7.861.561-11.211-.6s-8.012-.114-11.56.143c-12.144.883-28.594,6.283-38.364,11.337A73.913,73.913,0,0,0,6.315,42.524c-20.864,32.019,14.651,45.944,38.558,51.91a188.188,188.188,0,0,0,87.5,1.121c20.339-4.7,60.191-19.906,52.753-47.991-5.807-21.929-36.887-37.015-58.962-42.973C111.547.647,98.623-.431,82.675.144c-10.8.39-34.93,4.363-37.791,12.574" transform="translate(0 0)" fill="#5e9e2d" fill-rule="evenodd"/>
  </g>
</svg>
