<svg xmlns="http://www.w3.org/2000/svg" width="136.803" height="20.82" viewBox="0 0 136.803 20.82">
  <g id="Stars" transform="translate(-700.099 -3460.98)">
    <g id="Star" transform="translate(700.099 3460.98)">
      <g id="Group_122" data-name="Group 122">
        <path id="Path_400" data-name="Path 400" d="M12.016.707,14.4,5.531a1.267,1.267,0,0,0,.954.693L20.674,7a1.267,1.267,0,0,1,.7,2.161l-3.852,3.755a1.267,1.267,0,0,0-.364,1.121l.909,5.3a1.267,1.267,0,0,1-1.838,1.335l-4.762-2.5a1.267,1.267,0,0,0-1.179,0l-4.762,2.5a1.267,1.267,0,0,1-1.838-1.335l.909-5.3a1.267,1.267,0,0,0-.364-1.121L.383,9.158A1.267,1.267,0,0,1,1.085,7l5.324-.774a1.267,1.267,0,0,0,.954-.693L9.744.707a1.267,1.267,0,0,1,2.272,0" transform="translate(0.001 0)" fill="#f3bf27" fill-rule="evenodd"/>
      </g>
    </g>
    <g id="Star-2" data-name="Star" transform="translate(728.859 3460.98)">
      <g id="Group_123" data-name="Group 123">
        <path id="Path_400-2" data-name="Path 400" d="M12.016.707,14.4,5.531a1.267,1.267,0,0,0,.954.693L20.674,7a1.267,1.267,0,0,1,.7,2.161l-3.852,3.755a1.267,1.267,0,0,0-.364,1.121l.909,5.3a1.267,1.267,0,0,1-1.838,1.335l-4.762-2.5a1.267,1.267,0,0,0-1.179,0l-4.762,2.5a1.267,1.267,0,0,1-1.838-1.335l.909-5.3a1.267,1.267,0,0,0-.364-1.121L.383,9.158A1.267,1.267,0,0,1,1.085,7l5.324-.774a1.267,1.267,0,0,0,.954-.693L9.744.707a1.267,1.267,0,0,1,2.272,0" transform="translate(0.001 0)" fill="#f3bf27" fill-rule="evenodd"/>
      </g>
    </g>
    <g id="Star-3" data-name="Star" transform="translate(757.62 3460.98)">
      <g id="Group_124" data-name="Group 124">
        <path id="Path_400-3" data-name="Path 400" d="M12.016.707,14.4,5.531a1.267,1.267,0,0,0,.954.693L20.674,7a1.267,1.267,0,0,1,.7,2.161l-3.852,3.755a1.267,1.267,0,0,0-.364,1.121l.909,5.3a1.267,1.267,0,0,1-1.838,1.335l-4.762-2.5a1.267,1.267,0,0,0-1.179,0l-4.762,2.5a1.267,1.267,0,0,1-1.838-1.335l.909-5.3a1.267,1.267,0,0,0-.364-1.121L.383,9.158A1.267,1.267,0,0,1,1.085,7l5.324-.774a1.267,1.267,0,0,0,.954-.693L9.744.707a1.267,1.267,0,0,1,2.272,0" transform="translate(0.001 0)" fill="#f3bf27" fill-rule="evenodd"/>
      </g>
    </g>
    <g id="Star-4" data-name="Star" transform="translate(786.38 3460.98)">
      <g id="Group_125" data-name="Group 125">
        <path id="Path_400-4" data-name="Path 400" d="M12.016.707,14.4,5.531a1.267,1.267,0,0,0,.954.693L20.674,7a1.267,1.267,0,0,1,.7,2.161l-3.852,3.755a1.267,1.267,0,0,0-.364,1.121l.909,5.3a1.267,1.267,0,0,1-1.838,1.335l-4.762-2.5a1.267,1.267,0,0,0-1.179,0l-4.762,2.5a1.267,1.267,0,0,1-1.838-1.335l.909-5.3a1.267,1.267,0,0,0-.364-1.121L.383,9.158A1.267,1.267,0,0,1,1.085,7l5.324-.774a1.267,1.267,0,0,0,.954-.693L9.744.707a1.267,1.267,0,0,1,2.272,0" transform="translate(0.001 0)" fill="#f3bf27" fill-rule="evenodd"/>
      </g>
    </g>
    <g id="Star-5" data-name="Star" transform="translate(815.141 3460.98)">
      <g id="Group_126" data-name="Group 126">
        <path id="Path_400-5" data-name="Path 400" d="M12.016.707,14.4,5.531a1.267,1.267,0,0,0,.954.693L20.674,7a1.267,1.267,0,0,1,.7,2.161l-3.852,3.755a1.267,1.267,0,0,0-.364,1.121l.909,5.3a1.267,1.267,0,0,1-1.838,1.335l-4.762-2.5a1.267,1.267,0,0,0-1.179,0l-4.762,2.5a1.267,1.267,0,0,1-1.838-1.335l.909-5.3a1.267,1.267,0,0,0-.364-1.121L.383,9.158A1.267,1.267,0,0,1,1.085,7l5.324-.774a1.267,1.267,0,0,0,.954-.693L9.744.707a1.267,1.267,0,0,1,2.272,0" transform="translate(0.001 0)" fill="#f3bf27" fill-rule="evenodd"/>
      </g>
    </g>
  </g>
</svg>
