<svg xmlns="http://www.w3.org/2000/svg" xmlns:xlink="http://www.w3.org/1999/xlink" width="218" height="13" viewBox="0 0 218 13">
  <defs>
    <clipPath id="clip-path">
      <rect id="Rectangle_470" data-name="Rectangle 470" width="218" height="13" transform="translate(0 -0.2)" fill="#062b3f"/>
    </clipPath>
  </defs>
  <g id="Drawn_underline" data-name="Drawn underline" transform="translate(0 0.201)">
    <g id="Group_568" data-name="Group 568" transform="translate(0 0)" clip-path="url(#clip-path)">
      <path id="Path_1930" data-name="Path 1930" d="M210.61,11.848c-.007.525-.34.941-.741.93-14.1-.394-28.2-1.15-42.277-1.905l-2.368-.127c-14.876-.8-29.741-1.57-44.621-1.9C81.353,7.991,42.471,10.174,3.285,12.475A9.13,9.13,0,0,1,1.367,12.3a2.812,2.812,0,0,1-.859-.283.973.973,0,0,1-.283-.254,1.215,1.215,0,0,1-.2-.964,1.061,1.061,0,0,1,.361-.627,1.089,1.089,0,0,1,.272-.158C7.438,7.151,16.007,6.65,23.152,6.232c1.059-.062,2.086-.122,3.073-.188,37.34-2.489,74.827-2.283,112.228-2.078,10.311.056,20.611.113,30.9.113h3.857q-34.335-1.356-68.68-2.1c-1.871-.039-3.306-.058-3.993-.067h-.068l-.336,0h-.072l-.025,0a.567.567,0,0,1-.086-.017,1.25,1.25,0,0,1-.293-.175A1.814,1.814,0,0,1,99.81.081a1.225,1.225,0,0,1,.172-.067l.047-.008.036,0H124.55a.75.75,0,0,1,.665.573q30.616.828,61.221,2.147,7.009.3,14,.621,7.476.339,14.969.663l1.156.047.215.009.333.014.093.005c.007,0,.039,0,.075.009a.782.782,0,0,1,.079.021.612.612,0,0,1,.129.061,1.072,1.072,0,0,1,.157.13,1.825,1.825,0,0,1,.24.5,2.12,2.12,0,0,1-.118.789,1.489,1.489,0,0,1-.225.265.671.671,0,0,1-.179.1.585.585,0,0,1-.1.024h0a1.039,1.039,0,0,1-.122.008h-.6q-.5,0-1.385,0H169.356c-10.307,0-20.618-.057-30.933-.113-37.4-.2-74.83-.41-112.124,2.076-1,.067-2.043.128-3.105.19-5.8.342-12.375.728-18.153,2.337C43.609,8.208,81.936,6.1,120.629,6.95c14.9.326,29.78,1.1,44.656,1.9l2.365.127c14.085.756,28.163,1.511,42.249,1.9a.87.87,0,0,1,.712.97m6.5-5.872h0ZM100.125,1.9h0" transform="translate(0 0)" fill="#062b3f" fill-rule="evenodd"/>
    </g>
  </g>
</svg>
