<svg xmlns="http://www.w3.org/2000/svg" width="281.8" height="21.978" viewBox="0 0 281.8 21.978">
  <g id="Drawn_underline" data-name="Drawn underline" transform="translate(0 0)">
    <path id="Path_1643" data-name="Path 1643" d="M125.174,5.151C84.745,8.739,78.5,9.307,72.244,9.863c-7.06.627-14.123,1.228-70.417,6.128A1.606,1.606,0,0,1,.01,14.8a1.445,1.445,0,0,1,1.467-1.487c56.293-4.9,63.355-5.5,70.413-6.128,6.37-.562,12.738-1.144,55.294-4.919,1.987-.181,4.9-.472,8.064-.789,3.217-.317,6.7-.666,9.736-.95,2.952-.271,5.5-.478,6.831-.517a8.939,8.939,0,0,1,.939.013h.008a2.605,2.605,0,0,1,.762.187,1.5,1.5,0,0,1,.831.886,1.2,1.2,0,0,1-.34,1.2,1.637,1.637,0,0,1-.449.317,1.683,1.683,0,0,1-.276.123,4.032,4.032,0,0,1-.461.142c-.307.084-.714.175-1.212.278-9.6,1.959-19.444,3.587-29.27,5.216-4.465.743-8.926,1.48-13.361,2.249a348.043,348.043,0,0,0-38.856,8.571c.275-.019.554-.032.836-.052L71,19.133c.762-.045,1.56-.1,2.355-.129,15.686-.543,39.663-2.443,54.061-3.587,11.775-.944,23.672-2.2,35.623-3.465C183.392,9.8,203.9,7.627,224.214,6.987c.218-.006.388-.013.507-.013h.273a.655.655,0,0,1,.1.006h0a1.326,1.326,0,0,1,.27.039,1.805,1.805,0,0,1,.442.149A1.344,1.344,0,0,1,226.6,8.4a1.328,1.328,0,0,1-.689,1.021l0,.006a1.57,1.57,0,0,1-.346.149,2.342,2.342,0,0,1-.233.065h0a.762.762,0,0,1-.092.013c-.068.013-.138.019-.173.026-.09.006-.221.019-.365.032h-.008c-.6.058-1.718.162-3.008.336-.345.045-.7.1-1.056.149,6.63.078,13.306-.013,19.95-.136,6.253-.116,12.5-.814,18.848-1.525.264-.032.529-.058.793-.09a179.627,179.627,0,0,1,19.935-1.454A1.522,1.522,0,0,1,281.8,8.338a1.521,1.521,0,0,1-1.652,1.344,174.96,174.96,0,0,0-19.487,1.435c-.285.032-.57.065-.855.09-6.293.711-12.714,1.429-19.161,1.545-7.713.142-15.532.246-23.287.09-.065-.006-.143-.006-.228-.006-.558-.006-1.5-.026-2.264-.11a4.736,4.736,0,0,1-1.552-.407,1.636,1.636,0,0,1-.9-1.138,1.335,1.335,0,0,1,.248-.976c-16.309.937-32.624,2.663-48.953,4.4-11.984,1.267-23.976,2.54-35.978,3.5-14.367,1.144-38.445,3.057-54.243,3.6-.731.026-1.474.078-2.258.129h0c-.775.045-1.588.1-2.4.129a18.964,18.964,0,0,1-5.1-.4,1.887,1.887,0,0,1-1.3-.924,1.311,1.311,0,0,1,.278-1.474,3.037,3.037,0,0,1,.613-.478c.187-.11.39-.213.585-.3a20.6,20.6,0,0,1,2.273-.866c13.59-4.221,27.838-7.052,42.123-9.528,4.5-.782,9-1.525,13.479-2.269l3.4-.562M65.242,20.878s0-.006.007-.006-.007.006-.007.006" transform="translate(0 0)" fill="#5e9e2d" fill-rule="evenodd"/>
  </g>
</svg>
