<svg xmlns="http://www.w3.org/2000/svg" width="222" height="13.894" viewBox="0 0 222 13.894">
  <g id="Underline" transform="translate(0 0)">
    <path id="Path_1597" data-name="Path 1597" d="M214.592,12.883c-.007.571-.346,1.024-.755,1.011-14.37-.429-28.729-1.251-43.077-2.072l-2.413-.138c-15.157-.866-30.3-1.707-45.464-2.061-39.993-.934-79.61,1.439-119.537,3.941a8.735,8.735,0,0,1-1.954-.188,2.741,2.741,0,0,1-.875-.307,1.014,1.014,0,0,1-.288-.276,1.389,1.389,0,0,1-.2-1.048,1.167,1.167,0,0,1,.368-.681,1.094,1.094,0,0,1,.277-.172C7.579,7.776,16.31,7.231,23.589,6.776c1.079-.067,2.125-.133,3.131-.2,38.046-2.706,76.241-2.482,114.349-2.26,10.506.061,21,.123,31.488.123h3.93Q141.5,2.961,106.509,2.148c-1.906-.043-3.368-.063-4.068-.073h-.069l-.343-.005h-.073l-.026,0a.545.545,0,0,1-.087-.018,1.257,1.257,0,0,1-.3-.19A2.086,2.086,0,0,1,101.7.088a1.2,1.2,0,0,1,.175-.073l.047-.009.036,0,.022,0H126.9a.78.78,0,0,1,.678.623q31.195.9,62.378,2.334,7.141.324,14.26.676,7.617.369,15.252.72l1.177.051.219.009.339.015.095.006a.749.749,0,0,1,.077.01.757.757,0,0,1,.08.023.606.606,0,0,1,.131.066,1.111,1.111,0,0,1,.16.142,2.044,2.044,0,0,1,.244.542,2.447,2.447,0,0,1-.12.858,1.6,1.6,0,0,1-.23.288.669.669,0,0,1-.182.1.564.564,0,0,1-.1.026h0a.993.993,0,0,1-.124.009h-.612q-.509,0-1.411,0H172.558c-10.5,0-21.008-.062-31.517-.123C102.936,6.156,64.8,5.933,26.8,8.636c-1.021.073-2.081.139-3.164.207-5.913.372-12.609.792-18.5,2.541,39.3-2.458,78.348-4.748,117.772-3.827,15.183.355,30.343,1.2,45.5,2.063l2.41.138c14.352.822,28.7,1.643,43.047,2.071.412.012.736.485.725,1.055M221.216,6.5h0Zm-119.2-4.431h0" transform="translate(0 0)" fill="#5e9e2d" fill-rule="evenodd"/>
  </g>
</svg>
