<svg xmlns="http://www.w3.org/2000/svg" xmlns:xlink="http://www.w3.org/1999/xlink" width="155.467" height="13" viewBox="0 0 155.467 13">
  <defs>
    <clipPath id="clip-path">
      <rect id="Rectangle_456" data-name="Rectangle 456" width="155.467" height="13" fill="#062b3f"/>
    </clipPath>
  </defs>
  <g id="Drawn_underline" data-name="Drawn underline" transform="translate(-0.5)">
    <g id="Group_555" data-name="Group 555" transform="translate(0.5 0)" clip-path="url(#clip-path)">
      <path id="Path_1911" data-name="Path 1911" d="M154.7,1.8h0M103.085,5q1.889-.173,3.778-.343l.676-.062c5.116-.469,37.63-3.448,43.126-3.865A9.888,9.888,0,0,0,151.981.48l.356-.085c.421-.1.857-.205,1.244-.281a3.181,3.181,0,0,1,1.257-.076.643.643,0,0,1,.3.175,1.257,1.257,0,0,1,.295.874,1.715,1.715,0,0,1-.17.774,2.079,2.079,0,0,1-.238.37A2.94,2.94,0,0,1,152.5,3.382c-.323,0-.655-.027-.972-.053l-.285-.022a5.481,5.481,0,0,0-1.156.006c-4.458.627-8.921,1.183-13.387,1.619-5.478.534-12.369.974-20.127,1.337q0,.045-.008.087a3.268,3.268,0,0,1-.334,1.186,1.449,1.449,0,0,1-.591.62,1.873,1.873,0,0,1-1.316.061,10.785,10.785,0,0,1-1.041-.33l-.314-.11a3.552,3.552,0,0,0-1.125-.252c-3.28.075-11.651.065-15.763.06l-1.617,0q-3.245.31-6.491.623C64.21,10.5,40.4,12.786,16.609,12.786c-.271,0-.491-.4-.491-.888s.22-.888.491-.888c19.3,0,38.6-1.508,57.9-3.3q-18.888.236-37.776.915c-.257.009-.472-.341-.5-.795-13.876.043-25.274-.009-31.272-.077C3.3,7.738,2.046,7.718,1.274,7.7.89,7.689.619,7.679.474,7.67L.38,7.662.334,7.654.292,7.643a.72.72,0,0,1-.146-.094A2.266,2.266,0,0,1,.121,6.015a.754.754,0,0,1,.169-.12.387.387,0,0,1,.069-.017h0c.026,0,.058-.007.09-.008.509-.034,3.182-.056,8.5-.056l8.729,0c18.5.006,37,.012,55.5-.233,10.353-.138,13.277-.209,17.3-.308,2.741-.067,5.991-.148,12.456-.269l.161,0" transform="translate(-0.345 0)" fill="#062b3f" fill-rule="evenodd"/>
    </g>
  </g>
</svg>
