<svg xmlns="http://www.w3.org/2000/svg" xmlns:xlink="http://www.w3.org/1999/xlink" width="149" height="20" viewBox="0 0 149 20">
  <defs>
    <clipPath id="clip-path">
      <rect id="Rectangle_1625" data-name="Rectangle 1625" width="149" height="20" transform="translate(0 0)" fill="#5e9e2d"/>
    </clipPath>
  </defs>
  <g id="Group_2858" data-name="Group 2858" transform="translate(0 0)">
    <g id="Group_2857" data-name="Group 2857" transform="translate(0 0)" clip-path="url(#clip-path)">
      <path id="Path_3670" data-name="Path 3670" d="M148.6,2.432h0M148.593.072h0ZM84.546,3.608q-18.288.381-36.581.769-20.323.435-40.651.857c-.252.006-.458-.526-.46-1.189s.2-1.194.454-1.2q20.326-.426,40.651-.857Q85.1,1.208,122.241.439l5.022-.106q8.876-.186,17.755-.325c.57-.006,1.709-.012,2.565,0,.424.006.786.012.972.03a.658.658,0,0,1,.119.012h0a.689.689,0,0,1,.09.035.589.589,0,0,1,.085.077.8.8,0,0,1,.1.166,1.938,1.938,0,0,1,.153.627,2.85,2.85,0,0,1-.067.976,1.214,1.214,0,0,1-.137.343.429.429,0,0,1-.115.13.239.239,0,0,1-.1.047.205.205,0,0,1-.061.012,1.021,1.021,0,0,1-.173.024c-2.131.2-4.269.272-6.4.337-.835.03-1.671.059-2.5.095-16.7.7-33.395,1.738-50.092,2.779q-1.967.115-3.932.242h34.342V8.327H39.21c-6.513.006-12.96.03-17.982.083-1.294.018-3.077-.012-5.062-.047L13.93,8.327c-.775,0-1.2-.006-1.318-.006-.011,0-.022-.006-.031-.006h-.025a.1.1,0,0,0-.022-.006c-2.017-.024-4.06-.03-5.886.024A39.4,39.4,0,0,0,2.66,8.6c9.387,4.376,19.664,5.085,29.433,5.765,2.587.177,5.138.355,7.627.591,22.359,2.17,44.709,2.472,67.072,2.767,10.158.136,20.32.272,30.489.585.252.006.454.55.449,1.206s-.209,1.189-.46,1.183c-10.155-.313-20.311-.449-30.466-.585-22.37-.3-44.742-.6-67.117-2.767-2.466-.237-5-.414-7.579-.591-10.068-.692-20.769-1.431-30.459-6.215a5.46,5.46,0,0,1-.954-.574,1.75,1.75,0,0,1-.31-.3,1.631,1.631,0,0,1-.3-.633A3.115,3.115,0,0,1,0,8.132a2.656,2.656,0,0,1,.141-.781,1.184,1.184,0,0,1,.3-.479,1.863,1.863,0,0,1,.66-.349,23.2,23.2,0,0,1,5.529-.579c1.891-.053,4.031-.047,6.133-.024h.144c.283-.006.743-.012,1.356-.018.7-.012,1.6-.018,2.666-.03,2.668-.03,6.373-.065,10.58-.118,11.777-.148,27.47-.408,35.315-.846q10.857-.621,21.714-1.3M.763,7.487s0,0,.007.012c0-.012-.007-.012-.007-.012M.736,9.143c0,.006,0,.006,0,.006Z" transform="translate(0 -0.001)" fill="#5e9e2d" fill-rule="evenodd"/>
    </g>
  </g>
</svg>
