<svg xmlns="http://www.w3.org/2000/svg" xmlns:xlink="http://www.w3.org/1999/xlink" width="236" height="9" viewBox="0 0 236 9">
  <defs>
    <clipPath id="clip-path">
      <rect id="Rectangle_1619" data-name="Rectangle 1619" width="236" height="9" transform="translate(0 -0.2)" fill="#062b3f"/>
    </clipPath>
  </defs>
  <g id="Underline" transform="translate(235.8 8.8) rotate(180)">
    <g id="Group_2847" data-name="Group 2847" transform="translate(-0.2 0)" clip-path="url(#clip-path)">
      <path id="Path_3665" data-name="Path 3665" d="M16.61,4.472c1.72.2,3.767.389,6.016.568,9.133.729,21.317,1.25,27.424,1.3,43.953.323,87.763-.948,131.629-3.17q-24.556,0-49.112.033c-35.877.348-76.238.788-106.079,1.113l-9.422.1-.456.057m205.408-1.3h12.788a1.116,1.116,0,0,0,.994-1.207,1.116,1.116,0,0,0-.994-1.207H225.92L225.9.738a1.045,1.045,0,0,0-.3-.266,1.109,1.109,0,0,0-.392-.133h-.005c-.078-.012-.165-.02-.255-.026-.181-.012-.425-.02-.733-.025C213.66.144,203.1.211,192.553.278l-1.567.009c-15.265.1-35.968.278-58.428.5Q120.575.8,108.592.837C99.94.863,90.988.648,81.9.429,60.308-.09,37.937-.629,16.956,2L.985,2.172A1.121,1.121,0,0,0,0,3.39a1.112,1.112,0,0,0,1,1.2l8.958-.1v.026a1.505,1.505,0,0,0,.273.8,1.594,1.594,0,0,0,.6.492,5.823,5.823,0,0,0,1.251.4A90.33,90.33,0,0,0,22.495,7.45c9.167.732,21.391,1.255,27.543,1.3,53.351.393,106.482-1.562,159.742-4.714,2.421-.143,7.255-.461,10.882-.752.474-.038.928-.075,1.356-.112M224.879.437h0c.022-.007.025-.006,0,0M11.562,5.32l-.02.011a.1.1,0,0,1,.02-.011" transform="translate(0.2 0)" fill="#062b3f" fill-rule="evenodd"/>
    </g>
  </g>
</svg>
