<svg xmlns="http://www.w3.org/2000/svg" xmlns:xlink="http://www.w3.org/1999/xlink" width="225" height="13" viewBox="0 0 225 13">
  <defs>
    <clipPath id="clip-path">
      <rect id="Rectangle_456" data-name="Rectangle 456" width="225" height="13" transform="translate(0.5 0)" fill="#fff"/>
    </clipPath>
  </defs>
  <g id="Drawn_underline" data-name="Drawn underline" transform="translate(-0.5 0)">
    <g id="Group_555" data-name="Group 555" transform="translate(0 0)" clip-path="url(#clip-path)">
      <path id="Path_1911" data-name="Path 1911" d="M223.9,1.8h0M149.191,5q2.734-.173,5.468-.343l.978-.062c7.4-.469,54.461-3.448,62.414-3.865.452-.023,1.131-.125,1.9-.252l.516-.085c.609-.1,1.24-.205,1.8-.281a6.613,6.613,0,0,1,1.819-.076,1.087,1.087,0,0,1,.428.175,1.066,1.066,0,0,1,.426.874,1.306,1.306,0,0,1-.247.774,2.183,2.183,0,0,1-.344.37A5.244,5.244,0,0,1,220.7,3.382c-.468,0-.947-.027-1.407-.053l-.413-.022a11.463,11.463,0,0,0-1.672.006c-6.452.627-12.91,1.183-19.375,1.619-7.928.534-17.9.974-29.13,1.337q0,.045-.012.087a2.56,2.56,0,0,1-.483,1.186,1.889,1.889,0,0,1-.855.62,3.85,3.85,0,0,1-1.9.061c-.488-.081-1.012-.209-1.506-.33l-.455-.11a7.153,7.153,0,0,0-1.628-.252c-4.747.075-16.862.065-22.813.06l-2.341,0q-4.7.31-9.394.623C92.928,10.5,58.471,12.786,24.038,12.786a.814.814,0,0,1-.71-.888.814.814,0,0,1,.71-.888c27.928,0,55.866-1.508,83.793-3.3q-27.336.236-54.672.915a.787.787,0,0,1-.72-.795c-20.083.043-36.578-.009-45.259-.077C4.77,7.738,2.961,7.718,1.844,7.7,1.288,7.689.9,7.679.687,7.67L.55,7.662.483,7.654l-.06-.011a1.18,1.18,0,0,1-.211-.094A1.617,1.617,0,0,1,.176,6.015a1.19,1.19,0,0,1,.244-.12.778.778,0,0,1,.1-.017h0c.038,0,.084-.007.131-.008.737-.034,4.606-.056,12.3-.056l12.633,0c26.775.006,53.547.012,80.318-.233,14.983-.138,19.215-.209,25.031-.308C134.9,5.206,139.6,5.126,148.958,5l.233,0" transform="translate(0 0)" fill="#fff" fill-rule="evenodd"/>
    </g>
  </g>
</svg>
