<svg xmlns="http://www.w3.org/2000/svg" xmlns:xlink="http://www.w3.org/1999/xlink" width="240.6" height="14.067" viewBox="0 0 240.6 14.067">
  <defs>
    <clipPath id="clip-path">
      <rect id="Rectangle_456" data-name="Rectangle 456" width="240.6" height="14.067" fill="#5e9e2d"/>
    </clipPath>
  </defs>
  <g id="Drawn_underline" data-name="Drawn underline" transform="translate(-0.033)">
    <g id="Group_555" data-name="Group 555" transform="translate(0.033 0)" clip-path="url(#clip-path)">
      <path id="Path_1911" data-name="Path 1911" d="M238.427,1.946h0M158.873,5.412q2.911-.187,5.823-.371l1.042-.067c7.884-.507,58-3.731,66.465-4.183.481-.025,1.2-.135,2.028-.272l.549-.092c.648-.109,1.32-.222,1.918-.3a6.932,6.932,0,0,1,1.938-.082,1.147,1.147,0,0,1,.456.189,1.159,1.159,0,0,1,.454.946,1.428,1.428,0,0,1-.263.838,2.348,2.348,0,0,1-.367.4,5.525,5.525,0,0,1-3.889,1.246c-.5,0-1.009-.03-1.5-.058l-.44-.024a12.014,12.014,0,0,0-1.781.006c-6.871.678-13.748,1.28-20.633,1.751-8.442.578-19.062,1.054-31.02,1.446q-.005.049-.012.094a2.8,2.8,0,0,1-.515,1.284,2.013,2.013,0,0,1-.911.671,4.038,4.038,0,0,1-2.028.066c-.519-.087-1.078-.226-1.6-.357l-.484-.119a7.505,7.505,0,0,0-1.734-.273c-5.055.082-17.956.07-24.293.064l-2.493,0q-5,.335-10,.674c-36.62,2.473-73.313,4.95-109.981,4.95a.877.877,0,0,1-.756-.961.877.877,0,0,1,.756-.96c29.74,0,59.491-1.632,89.231-3.569q-29.11.255-58.22.99a.846.846,0,0,1-.767-.86c-21.386.047-38.952-.01-48.2-.083-2.565-.02-4.491-.042-5.681-.062C1.371,8.32.954,8.31.731,8.3L.586,8.291.515,8.282.45,8.27a1.247,1.247,0,0,1-.224-.1,1.775,1.775,0,0,1-.039-1.66,1.259,1.259,0,0,1,.26-.13A.816.816,0,0,1,.554,6.36h0c.04,0,.09-.007.139-.009.784-.036,4.9-.061,13.1-.061l13.453,0c28.512.007,57.022.013,85.53-.252,15.955-.149,20.462-.227,26.655-.333,4.224-.073,9.234-.16,19.2-.291l.248,0" transform="translate(-0.033 0)" fill="#5e9e2d" fill-rule="evenodd"/>
    </g>
  </g>
</svg>
