<svg xmlns="http://www.w3.org/2000/svg" width="328" height="16.6" viewBox="0 0 328 16.6">
  <g id="Underline" transform="translate(0 0)">
    <path id="Path_1597" data-name="Path 1597" d="M317.055,15.391A1.161,1.161,0,0,1,315.94,16.6c-21.231-.512-42.446-1.494-63.645-2.475l-3.565-.165c-22.394-1.035-44.773-2.04-67.172-2.462C122.47,10.381,63.936,13.217,4.945,16.206a15.87,15.87,0,0,1-2.887-.224,4.715,4.715,0,0,1-1.293-.367,1.394,1.394,0,0,1-.727-1.582,1.368,1.368,0,0,1,.544-.814,1.721,1.721,0,0,1,.409-.205C11.2,9.29,24.1,8.639,34.853,8.1c1.594-.081,3.14-.159,4.626-.244,56.212-3.233,112.645-2.966,168.949-2.7q23.283.11,46.523.147h5.806Q209.069,3.538,157.365,2.567c-2.817-.051-4.977-.076-6.011-.087h-.1l-.506-.006h-.108l-.038,0a.977.977,0,0,1-.129-.022,1.97,1.97,0,0,1-.442-.227A2.082,2.082,0,0,1,150.255.1a2.031,2.031,0,0,1,.259-.087l.07-.01.054,0,.032,0H187.5a1.1,1.1,0,0,1,1,.745Q234.59,1.82,280.663,3.533q10.551.387,21.069.807,11.254.441,22.534.861l1.74.061.323.011.5.018.14.007c.011,0,.059,0,.113.012.011,0,.059.01.118.028a1,1,0,0,1,.194.079,1.586,1.586,0,0,1,.237.169,2.253,2.253,0,0,1,.361.648,2.411,2.411,0,0,1-.178,1.026,2.047,2.047,0,0,1-.339.344,1.075,1.075,0,0,1-.269.125,1,1,0,0,1-.151.031h0a1.81,1.81,0,0,1-.183.01h-.9q-.751,0-2.084,0H254.951q-23.275,0-46.566-.147c-56.3-.266-112.65-.532-168.793,2.7-1.508.087-3.075.166-4.675.247-8.736.444-18.63.946-27.328,3.035C65.649,10.663,123.348,7.928,181.6,9.028c22.432.424,44.832,1.429,67.226,2.464l3.56.165c21.2.982,42.4,1.963,63.6,2.474a1.174,1.174,0,0,1,1.072,1.26m9.786-7.628h0ZM150.729,2.47h0" transform="translate(0 0)" fill="#5e9e2d" fill-rule="evenodd"/>
  </g>
</svg>
