<svg xmlns="http://www.w3.org/2000/svg" width="270.933" height="20.4" viewBox="0 0 270.933 20.4">
  <g id="Underline" transform="translate(0 0)">
    <path id="Path_1597" data-name="Path 1597" d="M261.892,18.915c-.009.838-.423,1.5-.921,1.485-17.537-.629-35.061-1.836-52.571-3.042l-2.945-.2c-18.5-1.272-36.983-2.507-55.485-3.026-48.808-1.371-97.157,2.113-145.885,5.787A8.925,8.925,0,0,1,1.7,19.64a3,3,0,0,1-1.068-.451,1.366,1.366,0,0,1-.351-.406,2.373,2.373,0,0,1-.249-1.538,1.813,1.813,0,0,1,.449-1,1.321,1.321,0,0,1,.338-.252c8.43-4.576,19.085-5.376,27.97-6.043,1.317-.1,2.594-.195,3.822-.3C79.042,5.676,125.657,6,172.165,6.332c12.821.09,25.63.181,38.429.181h4.8q-42.7-2.165-85.4-3.358c-2.327-.063-4.111-.093-4.965-.107l-.085,0-.418-.008-.049,0-.027,0-.013,0-.031,0A.567.567,0,0,1,124.291,3a1.523,1.523,0,0,1-.365-.28,3.612,3.612,0,0,1,.187-2.6,1.34,1.34,0,0,1,.214-.107l.058-.013L124.429,0l.027,0h30.421c.369,0,.69.376.827.915q38.071,1.321,76.128,3.427,8.715.476,17.4.992,9.3.542,18.614,1.058l1.437.076.267.014q.28.014.414.023l.116.008a.769.769,0,0,1,.093.014.81.81,0,0,1,.1.034.7.7,0,0,1,.16.1,1.47,1.47,0,0,1,.2.208,3.32,3.32,0,0,1,.3.8,4.272,4.272,0,0,1-.147,1.26,2.32,2.32,0,0,1-.28.422.789.789,0,0,1-.222.154.6.6,0,0,1-.125.039h0a1.011,1.011,0,0,1-.151.013h-.747c-.414,0-.988,0-1.722,0h-56.94c-12.817,0-25.638-.091-38.464-.181-46.5-.327-93.051-.654-139.425,3.314-1.246.107-2.54.2-3.862.3-7.216.546-15.388,1.163-22.573,3.73C54.227,13.1,101.887,9.743,150,11.095c18.529.521,37.032,1.757,55.53,3.028l2.941.2c17.515,1.207,35.021,2.412,52.536,3.04.5.018.9.712.885,1.549m8.083-9.374h0ZM124.5,3.035h0" transform="translate(0 0)" fill="#5e9e2d" fill-rule="evenodd"/>
  </g>
</svg>
