<svg xmlns="http://www.w3.org/2000/svg" xmlns:xlink="http://www.w3.org/1999/xlink" width="220.4" height="17.695" viewBox="0 0 220.4 17.695">
  <defs>
    <clipPath id="clip-path">
      <rect id="Rectangle_1618" data-name="Rectangle 1618" width="220.4" height="17.695" fill="#5e9e2d"/>
    </clipPath>
  </defs>
  <g id="Underline" transform="translate(0 0)">
    <g id="Group_2845" data-name="Group 2845" transform="translate(0 0)" clip-path="url(#clip-path)">
      <path id="Path_3664" data-name="Path 3664" d="M9.911,17.6c-3.14.025-6.429-.225-8.847-1.476a2.608,2.608,0,0,1-.482-.311,1.545,1.545,0,0,1-.249-.27,1.77,1.77,0,0,1-.292-.691,2.144,2.144,0,0,1,.1-1.19,1.386,1.386,0,0,1,.347-.52,1.307,1.307,0,0,1,.469-.274,9.507,9.507,0,0,1,2.291-.3c.816-.039,1.7-.056,2.557-.073,1.2-.023,2.333-.045,3.064-.126q2.993-.329,5.989-.669c3.348-.376,6.7-.754,10.039-1.106,22.846-2.407,45.687-4.43,68.541-5.909q-18.443-.032-36.883-.4c.008,0-6.53-.072-10.8-.172-1.074-.025-2.012-.052-2.68-.081-.33-.014-.6-.028-.79-.044-.089-.008-.178-.017-.245-.028a.8.8,0,0,1-.156-.041.756.756,0,0,1-.283-.19,1.5,1.5,0,0,1-.372-.876,1.825,1.825,0,0,1,.279-1.268.914.914,0,0,1,.249-.238.75.75,0,0,1,.11-.057.693.693,0,0,1,.106-.033,1.254,1.254,0,0,1,.127-.022c.076-.01.178-.019.3-.027.241-.015.6-.031,1.09-.046.981-.03,2.5-.061,4.7-.09C105.3.316,162.425-.2,219.542.075c.473,0,.858.606.858,1.35s-.389,1.345-.862,1.343q-8.521-.042-17.042-.059l-.021,2.428-1.906-.047-3.107-.077q-8.591-.2-17.182-.308l-1.8-.012C127.242,4.435,76.141,7.9,25.014,13.284c-3.343.353-6.683.728-10.026,1.1q-2.289.257-4.582.514c1.327-.023,2.646-.09,3.889-.154l.173-.009c1.441-.074,2.794-.14,3.914-.115a1349.721,1349.721,0,0,0,137.463-3.556q7.31-.59,14.608-1.573c1.661-.223,3.31-.468,4.95-.79q-.311-.021-.621-.038c-1.293-.075-2.6-.113-3.584-.134-.588-.012-1.086-.018-1.395-.022-.19,0-.3,0-.325,0-.473-.04-.837-.673-.812-1.416s.431-1.313.9-1.273c-.013,0,.118,0,.44,0,.3,0,.714.009,1.213.019.993.021,2.308.06,3.622.136a35.18,35.18,0,0,1,3.635.36,6.647,6.647,0,0,1,1.285.327A1.65,1.65,0,0,1,180.82,8.5a2.45,2.45,0,0,1-.545,1.471,1.759,1.759,0,0,1-.731.505,3.573,3.573,0,0,1-.626.165c-.055.011-.11.021-.156.029-.118.021-.211.038-.3.061a64.612,64.612,0,0,1-7.866,1.45q-7.323.983-14.667,1.579A1350.888,1350.888,0,0,1,18.361,17.317c-1.078-.023-2.384.04-3.838.115l-.178.009c-1.4.071-2.912.148-4.434.16" transform="translate(0 0)" fill="#5e9e2d" fill-rule="evenodd"/>
    </g>
  </g>
</svg>
